<?xml version="1.0" standalone="no"?>
<!DOCTYPE svg PUBLIC "-//W3C//DTD SVG 20010904//EN"
 "http://www.w3.org/TR/2001/REC-SVG-20010904/DTD/svg10.dtd">
<svg version="1.0" xmlns="http://www.w3.org/2000/svg"
 width="512.000000pt" height="512.000000pt" viewBox="0 0 512.000000 512.000000"
 preserveAspectRatio="xMidYMid meet">
<metadata>
Created by potrace 1.11, written by Peter Selinger 2001-2013
</metadata>
<g transform="translate(0.000000,512.000000) scale(0.100000,-0.100000)"
fill="#000000" stroke="none">
<path d="M1895 5073 c4 -26 9 -63 11 -82 2 -19 8 -57 13 -85 36 -181 67 -487
65 -629 -1 -106 -13 -293 -20 -331 -2 -11 -6 -46 -9 -76 -4 -30 -8 -62 -10
-70 -2 -8 -7 -35 -10 -60 -27 -207 -130 -631 -214 -880 -18 -53 -19 -54 -25
-25 -21 91 -25 113 -31 145 -3 19 -10 51 -15 70 -5 19 -12 52 -15 74 -17 104
-76 244 -148 350 -43 64 -162 194 -170 186 -2 -3 -7 -68 -10 -145 -4 -77 -9
-156 -11 -175 -3 -19 -7 -55 -10 -80 -25 -217 -74 -390 -207 -723 -86 -216
-172 -466 -185 -537 -4 -25 -8 -47 -9 -50 -50 -181 -51 -530 -4 -735 71 -306
268 -605 562 -853 232 -195 488 -304 776 -328 129 -11 233 99 202 214 -24 87
-93 135 -214 147 -224 23 -436 136 -643 341 -249 246 -351 467 -359 779 -7
261 25 419 147 743 28 73 52 131 54 130 1 -2 6 -35 9 -73 3 -39 8 -90 10 -115
3 -25 7 -108 11 -185 3 -77 7 -162 9 -190 2 -27 4 -83 5 -122 2 -40 6 -73 9
-73 3 0 33 42 66 93 32 50 94 145 137 210 196 297 276 464 401 837 62 185 123
409 163 600 4 19 9 40 10 45 9 42 44 238 49 270 3 23 7 51 10 64 2 13 7 49 11
80 3 31 8 63 9 72 4 21 17 172 20 232 1 26 4 50 7 52 14 15 225 -350 367 -635
204 -408 320 -708 376 -967 14 -65 30 -136 35 -158 5 -22 15 -66 22 -99 l12
-59 60 66 c163 175 228 256 283 354 42 77 115 239 138 311 10 29 20 52 24 52
15 -1 115 -251 159 -400 30 -101 64 -250 77 -335 3 -22 8 -56 11 -75 18 -118
11 -437 -11 -560 -3 -14 -7 -38 -10 -55 -12 -64 -48 -184 -82 -275 -66 -174
-157 -328 -304 -510 -246 -306 -394 -409 -640 -446 -66 -9 -112 -22 -133 -36
-99 -65 -113 -193 -29 -274 58 -57 143 -65 299 -29 220 50 388 156 619 389
303 305 474 586 579 953 19 65 36 136 40 158 3 22 10 67 16 100 48 280 25 675
-59 986 -62 231 -168 488 -283 688 -26 46 -48 86 -48 88 0 3 -33 53 -72 111
-107 157 -171 231 -298 342 -41 36 -161 97 -207 106 l-32 6 30 -77 c26 -67 49
-146 75 -260 4 -16 8 -100 9 -185 3 -140 1 -162 -21 -228 -13 -40 -26 -78 -30
-84 -4 -6 -17 16 -29 48 -12 32 -32 82 -45 109 -150 333 -300 630 -416 822
-249 411 -572 764 -877 958 l-59 37 7 -49z"/>
</g>
</svg>
